<svg width="14" height="14" viewBox="0 0 14 14" fill="none" xmlns="http://www.w3.org/2000/svg">
<path d="M12.6734 5.91427H7.60407V0.844896C7.60407 0.620816 7.51505 0.405913 7.3566 0.247465C7.19815 0.0890158 6.98325 0 6.75917 0C6.53509 0 6.32019 0.0890158 6.16174 0.247465C6.00329 0.405913 5.91427 0.620816 5.91427 0.844896V5.91427H0.844896C0.620816 5.91427 0.405913 6.00329 0.247465 6.16174C0.0890158 6.32019 0 6.53509 0 6.75917C0 6.98325 0.0890158 7.19815 0.247465 7.3566C0.405913 7.51505 0.620816 7.60407 0.844896 7.60407H5.91427V12.6734C5.91427 12.8975 6.00329 13.1124 6.16174 13.2709C6.32019 13.4293 6.53509 13.5183 6.75917 13.5183C6.98325 13.5183 7.19815 13.4293 7.3566 13.2709C7.51505 13.1124 7.60407 12.8975 7.60407 12.6734V7.60407H12.6734C12.8975 7.60407 13.1124 7.51505 13.2709 7.3566C13.4293 7.19815 13.5183 6.98325 13.5183 6.75917C13.5183 6.53509 13.4293 6.32019 13.2709 6.16174C13.1124 6.00329 12.8975 5.91427 12.6734 5.91427Z" fill="white"/>
</svg>
