<svg width="34" height="43" viewBox="0 0 34 43" fill="none" xmlns="http://www.w3.org/2000/svg">
<path d="M16.5846 18.9538C18.459 18.9538 20.2912 18.3979 21.8497 17.3566C23.4081 16.3153 24.6228 14.8352 25.3401 13.1035C26.0574 11.3719 26.2451 9.46637 25.8794 7.62803C25.5137 5.7897 24.6111 4.10108 23.2858 2.77572C21.9604 1.45035 20.2718 0.547767 18.4334 0.1821C16.5951 -0.183568 14.6896 0.00410615 12.958 0.721388C11.2263 1.43867 9.7462 2.65335 8.70487 4.21181C7.66354 5.77027 7.10773 7.60253 7.10773 9.47688C7.10773 11.9903 8.10618 14.4008 9.88344 16.178C11.6607 17.9553 14.0712 18.9538 16.5846 18.9538Z" fill="#231F20" fill-opacity="0.17"/>
<path d="M30.7998 42.6459C31.4282 42.6459 32.0308 42.3963 32.4751 41.952C32.9194 41.5077 33.1691 40.9051 33.1691 40.2767C33.1691 35.8782 31.4218 31.6599 28.3116 28.5497C25.2014 25.4395 20.983 23.6922 16.5845 23.6922C12.186 23.6922 7.9677 25.4395 4.8575 28.5497C1.74729 31.6599 6.55426e-08 35.8782 0 40.2767C0 40.9051 0.249614 41.5077 0.693929 41.952C1.13824 42.3963 1.74086 42.6459 2.36922 42.6459H30.7998Z" fill="#231F20" fill-opacity="0.17"/>
</svg>
